<mxfile host="app.diagrams.net" modified="2023-09-20T21:45:58.263Z" agent="Mozilla/5.0 (Windows NT 10.0; Win64; x64) AppleWebKit/537.36 (KHTML, like Gecko) Chrome/116.0.0.0 Safari/537.36" etag="js7lIvriP-Rus8p2GSiQ" version="21.8.0" type="device">
  <diagram id="C5RBs43oDa-KdzZeNtuy" name="Page-1">
    <mxGraphModel dx="712" dy="772" grid="1" gridSize="10" guides="1" tooltips="1" connect="1" arrows="1" fold="1" page="1" pageScale="1" pageWidth="827" pageHeight="1169" math="0" shadow="0">
      <root>
        <mxCell id="WIyWlLk6GJQsqaUBKTNV-0" />
        <mxCell id="WIyWlLk6GJQsqaUBKTNV-1" parent="WIyWlLk6GJQsqaUBKTNV-0" />
        <mxCell id="-b7JqLn3kddwsDw8NaHM-2" value="" style="edgeStyle=orthogonalEdgeStyle;rounded=0;orthogonalLoop=1;jettySize=auto;html=1;" edge="1" parent="WIyWlLk6GJQsqaUBKTNV-1" source="-b7JqLn3kddwsDw8NaHM-0" target="-b7JqLn3kddwsDw8NaHM-1">
          <mxGeometry relative="1" as="geometry" />
        </mxCell>
        <mxCell id="-b7JqLn3kddwsDw8NaHM-0" value="START" style="ellipse;whiteSpace=wrap;html=1;" vertex="1" parent="WIyWlLk6GJQsqaUBKTNV-1">
          <mxGeometry x="220" y="50" width="120" height="80" as="geometry" />
        </mxCell>
        <mxCell id="-b7JqLn3kddwsDw8NaHM-4" value="" style="edgeStyle=orthogonalEdgeStyle;rounded=0;orthogonalLoop=1;jettySize=auto;html=1;" edge="1" parent="WIyWlLk6GJQsqaUBKTNV-1" source="-b7JqLn3kddwsDw8NaHM-1" target="-b7JqLn3kddwsDw8NaHM-3">
          <mxGeometry relative="1" as="geometry" />
        </mxCell>
        <mxCell id="-b7JqLn3kddwsDw8NaHM-5" value="False" style="edgeLabel;html=1;align=center;verticalAlign=middle;resizable=0;points=[];" vertex="1" connectable="0" parent="-b7JqLn3kddwsDw8NaHM-4">
          <mxGeometry x="0.113" y="4" relative="1" as="geometry">
            <mxPoint as="offset" />
          </mxGeometry>
        </mxCell>
        <mxCell id="-b7JqLn3kddwsDw8NaHM-7" value="" style="edgeStyle=orthogonalEdgeStyle;rounded=0;orthogonalLoop=1;jettySize=auto;html=1;" edge="1" parent="WIyWlLk6GJQsqaUBKTNV-1" source="-b7JqLn3kddwsDw8NaHM-1" target="-b7JqLn3kddwsDw8NaHM-6">
          <mxGeometry relative="1" as="geometry" />
        </mxCell>
        <mxCell id="-b7JqLn3kddwsDw8NaHM-1" value="invetoryContains(WOOD,count:2)" style="rhombus;whiteSpace=wrap;html=1;" vertex="1" parent="WIyWlLk6GJQsqaUBKTNV-1">
          <mxGeometry x="240" y="210" width="190" height="160" as="geometry" />
        </mxCell>
        <mxCell id="-b7JqLn3kddwsDw8NaHM-3" value="print &quot;Insufficient resources to craft Wooden Planks. &quot;" style="whiteSpace=wrap;html=1;" vertex="1" parent="WIyWlLk6GJQsqaUBKTNV-1">
          <mxGeometry x="5" y="260" width="120" height="60" as="geometry" />
        </mxCell>
        <mxCell id="-b7JqLn3kddwsDw8NaHM-9" value="" style="edgeStyle=orthogonalEdgeStyle;rounded=0;orthogonalLoop=1;jettySize=auto;html=1;" edge="1" parent="WIyWlLk6GJQsqaUBKTNV-1" source="-b7JqLn3kddwsDw8NaHM-6" target="-b7JqLn3kddwsDw8NaHM-8">
          <mxGeometry relative="1" as="geometry" />
        </mxCell>
        <mxCell id="-b7JqLn3kddwsDw8NaHM-6" value="removeItemsFromInventor(WOOD, count :2)" style="whiteSpace=wrap;html=1;" vertex="1" parent="WIyWlLk6GJQsqaUBKTNV-1">
          <mxGeometry x="545" y="260" width="215" height="60" as="geometry" />
        </mxCell>
        <mxCell id="-b7JqLn3kddwsDw8NaHM-11" value="" style="edgeStyle=orthogonalEdgeStyle;rounded=0;orthogonalLoop=1;jettySize=auto;html=1;" edge="1" parent="WIyWlLk6GJQsqaUBKTNV-1" source="-b7JqLn3kddwsDw8NaHM-8" target="-b7JqLn3kddwsDw8NaHM-10">
          <mxGeometry relative="1" as="geometry" />
        </mxCell>
        <mxCell id="-b7JqLn3kddwsDw8NaHM-8" value="addCraftedItem(CRAFTED_WOODEN_PLANKS)" style="whiteSpace=wrap;html=1;" vertex="1" parent="WIyWlLk6GJQsqaUBKTNV-1">
          <mxGeometry x="592.5" y="400" width="287.5" height="60" as="geometry" />
        </mxCell>
        <mxCell id="-b7JqLn3kddwsDw8NaHM-10" value="print &quot;Crafted Wooden Planks&quot;" style="whiteSpace=wrap;html=1;" vertex="1" parent="WIyWlLk6GJQsqaUBKTNV-1">
          <mxGeometry x="676.25" y="540" width="120" height="60" as="geometry" />
        </mxCell>
      </root>
    </mxGraphModel>
  </diagram>
</mxfile>
